<mxfile host="Electron" modified="2022-01-24T09:28:23.360Z" agent="5.0 (Windows NT 10.0; Win64; x64) AppleWebKit/537.36 (KHTML, like Gecko) draw.io/15.7.3 Chrome/91.0.4472.164 Electron/13.6.1 Safari/537.36" etag="xvettUvdz63VfrobwdRw" compressed="false" version="15.7.3" type="device">
  <diagram id="74B6DF1LeCddEMVfkx5V" name="Page-1">
    <mxGraphModel dx="-598" dy="875" grid="1" gridSize="10" guides="1" tooltips="1" connect="1" arrows="1" fold="1" page="1" pageScale="1" pageWidth="850" pageHeight="1100" math="0" shadow="0">
      <root>
        <mxCell id="0" />
        <mxCell id="1" parent="0" />
        <labelValue id="2Vn8Idm6m4d48psDPkdB-84">
          <labelValue labelValue="" />
          <mxCell style="rounded=0;whiteSpace=wrap;html=1;" parent="1" vertex="1">
            <mxGeometry x="2480" y="420" width="440" height="100" as="geometry" />
          </mxCell>
        </labelValue>
        <mxCell id="2Vn8Idm6m4d48psDPkdB-85" value="siehe Anwendungsfall Reise- und Lebensmanagement" style="text;html=1;align=center;verticalAlign=middle;resizable=0;points=[];autosize=1;strokeColor=none;fillColor=none;" parent="1" vertex="1">
          <mxGeometry x="2545" y="500" width="310" height="20" as="geometry" />
        </mxCell>
        <labelValue id="2Vn8Idm6m4d48psDPkdB-73">
          <labelValue labelValue="" />
          <mxCell style="rounded=0;whiteSpace=wrap;html=1;" parent="1" vertex="1">
            <mxGeometry x="3020" y="285" width="570" height="100" as="geometry" />
          </mxCell>
        </labelValue>
        <mxCell id="2Vn8Idm6m4d48psDPkdB-1" value="Angriffsziel&#xa;Optimierte Reise- und &#xa;Preisgestaltung" style="whiteSpace=wrap;shape=trapezoid;size=0.075;" parent="1" vertex="1">
          <mxGeometry x="2863" y="40" width="224" height="60" as="geometry" />
        </mxCell>
        <mxCell id="2Vn8Idm6m4d48psDPkdB-9" style="rounded=0;orthogonalLoop=1;jettySize=auto;html=1;" parent="1" source="2Vn8Idm6m4d48psDPkdB-2" target="2Vn8Idm6m4d48psDPkdB-8" edge="1">
          <mxGeometry relative="1" as="geometry" />
        </mxCell>
        <mxCell id="2Vn8Idm6m4d48psDPkdB-10" style="edgeStyle=none;rounded=0;orthogonalLoop=1;jettySize=auto;html=1;" parent="1" source="2Vn8Idm6m4d48psDPkdB-2" target="2Vn8Idm6m4d48psDPkdB-7" edge="1">
          <mxGeometry relative="1" as="geometry" />
        </mxCell>
        <mxCell id="2Vn8Idm6m4d48psDPkdB-18" style="edgeStyle=none;rounded=0;orthogonalLoop=1;jettySize=auto;html=1;" parent="1" source="2Vn8Idm6m4d48psDPkdB-2" target="2Vn8Idm6m4d48psDPkdB-17" edge="1">
          <mxGeometry relative="1" as="geometry" />
        </mxCell>
        <mxCell id="2Vn8Idm6m4d48psDPkdB-2" value="Reputationsschaden Betreiber" style="verticalAlign=middle;align=center;fillColor=#FFFFFF;gradientColor=none;labelBackgroundColor=none;rounded=1;whiteSpace=wrap;" parent="1" vertex="1">
          <mxGeometry x="3010" y="160" width="180" height="48" as="geometry" />
        </mxCell>
        <mxCell id="2Vn8Idm6m4d48psDPkdB-11" style="edgeStyle=none;rounded=0;orthogonalLoop=1;jettySize=auto;html=1;" parent="1" source="2Vn8Idm6m4d48psDPkdB-3" target="2Vn8Idm6m4d48psDPkdB-7" edge="1">
          <mxGeometry relative="1" as="geometry" />
        </mxCell>
        <mxCell id="2Vn8Idm6m4d48psDPkdB-12" style="edgeStyle=none;rounded=0;orthogonalLoop=1;jettySize=auto;html=1;" parent="1" source="2Vn8Idm6m4d48psDPkdB-3" target="2Vn8Idm6m4d48psDPkdB-8" edge="1">
          <mxGeometry relative="1" as="geometry" />
        </mxCell>
        <object label="Marktmanipulation zum Schaden/Vorteil einer Gruppe" id="2Vn8Idm6m4d48psDPkdB-3">
          <ag_attributes />
          <ag_computed_attributes />
          <mxCell style="verticalAlign=middle;align=center;fillColor=#FFFFFF;gradientColor=none;labelBackgroundColor=none;rounded=1;whiteSpace=wrap;" parent="1" vertex="1">
            <mxGeometry x="2373.5" y="160" width="180" height="48" as="geometry" />
          </mxCell>
        </object>
        <mxCell id="2Vn8Idm6m4d48psDPkdB-13" style="edgeStyle=none;rounded=0;orthogonalLoop=1;jettySize=auto;html=1;" parent="1" source="2Vn8Idm6m4d48psDPkdB-4" target="2Vn8Idm6m4d48psDPkdB-7" edge="1">
          <mxGeometry relative="1" as="geometry" />
        </mxCell>
        <mxCell id="2Vn8Idm6m4d48psDPkdB-14" style="edgeStyle=none;rounded=0;orthogonalLoop=1;jettySize=auto;html=1;" parent="1" source="2Vn8Idm6m4d48psDPkdB-4" target="2Vn8Idm6m4d48psDPkdB-8" edge="1">
          <mxGeometry relative="1" as="geometry" />
        </mxCell>
        <mxCell id="2Vn8Idm6m4d48psDPkdB-19" style="edgeStyle=none;rounded=0;orthogonalLoop=1;jettySize=auto;html=1;" parent="1" source="2Vn8Idm6m4d48psDPkdB-4" target="2Vn8Idm6m4d48psDPkdB-17" edge="1">
          <mxGeometry relative="1" as="geometry" />
        </mxCell>
        <mxCell id="2Vn8Idm6m4d48psDPkdB-4" value="Finanzieller Schaden&#xa;Betreiber" style="verticalAlign=middle;align=center;fillColor=#FFFFFF;gradientColor=none;labelBackgroundColor=none;rounded=1;whiteSpace=wrap;" parent="1" vertex="1">
          <mxGeometry x="2753.5" y="160" width="180" height="48" as="geometry" />
        </mxCell>
        <mxCell id="2Vn8Idm6m4d48psDPkdB-15" style="edgeStyle=none;rounded=0;orthogonalLoop=1;jettySize=auto;html=1;" parent="1" source="2Vn8Idm6m4d48psDPkdB-6" target="2Vn8Idm6m4d48psDPkdB-8" edge="1">
          <mxGeometry relative="1" as="geometry" />
        </mxCell>
        <mxCell id="2Vn8Idm6m4d48psDPkdB-16" style="edgeStyle=none;rounded=0;orthogonalLoop=1;jettySize=auto;html=1;" parent="1" source="2Vn8Idm6m4d48psDPkdB-6" target="2Vn8Idm6m4d48psDPkdB-7" edge="1">
          <mxGeometry relative="1" as="geometry" />
        </mxCell>
        <mxCell id="2Vn8Idm6m4d48psDPkdB-6" value="Finanzieller Schaden&#xa;Einzelperson" style="verticalAlign=middle;align=center;fillColor=#FFFFFF;gradientColor=none;labelBackgroundColor=none;rounded=1;whiteSpace=wrap;" parent="1" vertex="1">
          <mxGeometry x="2570" y="160" width="180" height="48" as="geometry" />
        </mxCell>
        <mxCell id="2Vn8Idm6m4d48psDPkdB-78" style="edgeStyle=none;rounded=0;orthogonalLoop=1;jettySize=auto;html=1;" parent="1" source="2Vn8Idm6m4d48psDPkdB-7" target="2Vn8Idm6m4d48psDPkdB-77" edge="1">
          <mxGeometry relative="1" as="geometry" />
        </mxCell>
        <mxCell id="2Vn8Idm6m4d48psDPkdB-79" style="edgeStyle=none;rounded=0;orthogonalLoop=1;jettySize=auto;html=1;" parent="1" source="2Vn8Idm6m4d48psDPkdB-7" target="2Vn8Idm6m4d48psDPkdB-75" edge="1">
          <mxGeometry relative="1" as="geometry" />
        </mxCell>
        <mxCell id="2Vn8Idm6m4d48psDPkdB-80" style="edgeStyle=none;rounded=0;orthogonalLoop=1;jettySize=auto;html=1;" parent="1" source="2Vn8Idm6m4d48psDPkdB-7" target="2Vn8Idm6m4d48psDPkdB-76" edge="1">
          <mxGeometry relative="1" as="geometry" />
        </mxCell>
        <object label="Reiseempfehlung manipulieren" id="2Vn8Idm6m4d48psDPkdB-7">
          <labelValue labelValue="" />
          <mxCell style="shape=attackgraphs.node;whiteSpace=wrap;" parent="1" vertex="1">
            <mxGeometry x="2780" y="310" width="133" height="50" as="geometry" />
          </mxCell>
        </object>
        <mxCell id="2Vn8Idm6m4d48psDPkdB-81" style="edgeStyle=none;rounded=0;orthogonalLoop=1;jettySize=auto;html=1;" parent="1" source="2Vn8Idm6m4d48psDPkdB-8" target="2Vn8Idm6m4d48psDPkdB-76" edge="1">
          <mxGeometry relative="1" as="geometry" />
        </mxCell>
        <mxCell id="2Vn8Idm6m4d48psDPkdB-82" style="edgeStyle=none;rounded=0;orthogonalLoop=1;jettySize=auto;html=1;" parent="1" source="2Vn8Idm6m4d48psDPkdB-8" target="2Vn8Idm6m4d48psDPkdB-75" edge="1">
          <mxGeometry relative="1" as="geometry" />
        </mxCell>
        <mxCell id="2Vn8Idm6m4d48psDPkdB-83" style="edgeStyle=none;rounded=0;orthogonalLoop=1;jettySize=auto;html=1;" parent="1" source="2Vn8Idm6m4d48psDPkdB-8" target="2Vn8Idm6m4d48psDPkdB-77" edge="1">
          <mxGeometry relative="1" as="geometry" />
        </mxCell>
        <object label="Preis manipulieren" id="2Vn8Idm6m4d48psDPkdB-8">
          <labelValue labelValue="" />
          <mxCell style="shape=attackgraphs.node;" parent="1" vertex="1">
            <mxGeometry x="2490" y="310" width="133" height="50" as="geometry" />
          </mxCell>
        </object>
        <object label="Verfügbarkeit des Dienstes beschränken" id="2Vn8Idm6m4d48psDPkdB-17">
          <labelValue labelValue="" />
          <mxCell style="shape=attackgraphs.node;whiteSpace=wrap;fillColor=#FEE599;" parent="1" vertex="1">
            <mxGeometry x="3030" y="305" width="133" height="50" as="geometry" />
          </mxCell>
        </object>
        <mxCell id="2Vn8Idm6m4d48psDPkdB-23" style="edgeStyle=none;rounded=0;orthogonalLoop=1;jettySize=auto;html=1;" parent="1" source="2Vn8Idm6m4d48psDPkdB-20" target="2Vn8Idm6m4d48psDPkdB-21" edge="1">
          <mxGeometry relative="1" as="geometry" />
        </mxCell>
        <mxCell id="2Vn8Idm6m4d48psDPkdB-34" style="edgeStyle=none;rounded=0;orthogonalLoop=1;jettySize=auto;html=1;" parent="1" source="2Vn8Idm6m4d48psDPkdB-20" target="2Vn8Idm6m4d48psDPkdB-26" edge="1">
          <mxGeometry relative="1" as="geometry" />
        </mxCell>
        <object label="Verletzung von Gesetzen und Verordnungen" id="2Vn8Idm6m4d48psDPkdB-20">
          <ag_attributes />
          <ag_computed_attributes />
          <mxCell style="verticalAlign=middle;align=center;fillColor=#FFFFFF;gradientColor=none;labelBackgroundColor=none;rounded=1;whiteSpace=wrap;" parent="1" vertex="1">
            <mxGeometry x="3420" y="160" width="180" height="48" as="geometry" />
          </mxCell>
        </object>
        <object label="Aufdecken privater Daten" id="2Vn8Idm6m4d48psDPkdB-21">
          <labelValue labelValue="" />
          <mxCell style="shape=attackgraphs.node;whiteSpace=wrap;fillColor=#FEE599;" parent="1" vertex="1">
            <mxGeometry x="3233.5" y="305" width="133" height="50" as="geometry" />
          </mxCell>
        </object>
        <mxCell id="2Vn8Idm6m4d48psDPkdB-35" style="edgeStyle=none;rounded=0;orthogonalLoop=1;jettySize=auto;html=1;" parent="1" source="2Vn8Idm6m4d48psDPkdB-25" target="2Vn8Idm6m4d48psDPkdB-21" edge="1">
          <mxGeometry relative="1" as="geometry" />
        </mxCell>
        <mxCell id="2Vn8Idm6m4d48psDPkdB-36" style="edgeStyle=none;rounded=0;orthogonalLoop=1;jettySize=auto;html=1;" parent="1" source="2Vn8Idm6m4d48psDPkdB-25" target="2Vn8Idm6m4d48psDPkdB-7" edge="1">
          <mxGeometry relative="1" as="geometry" />
        </mxCell>
        <mxCell id="2Vn8Idm6m4d48psDPkdB-25" value="Reputationsschaden Einzelperson" style="verticalAlign=middle;align=center;fillColor=#FFFFFF;gradientColor=none;labelBackgroundColor=none;rounded=1;whiteSpace=wrap;" parent="1" vertex="1">
          <mxGeometry x="3210" y="160" width="180" height="48" as="geometry" />
        </mxCell>
        <object label="Individuellen Nutzer nachstellen" id="2Vn8Idm6m4d48psDPkdB-26">
          <labelValue labelValue="" />
          <mxCell style="shape=attackgraphs.node;whiteSpace=wrap;fillColor=#FEE599;" parent="1" vertex="1">
            <mxGeometry x="3443.5" y="305" width="133" height="50" as="geometry" />
          </mxCell>
        </object>
        <mxCell id="2Vn8Idm6m4d48psDPkdB-74" value="siehe Anwendungsfall Reise- und Lebensmanagement" style="text;html=1;align=center;verticalAlign=middle;resizable=0;points=[];autosize=1;strokeColor=none;fillColor=none;" parent="1" vertex="1">
          <mxGeometry x="3145" y="365" width="310" height="20" as="geometry" />
        </mxCell>
        <object label="Manipulation des Algorithmus" id="2Vn8Idm6m4d48psDPkdB-75">
          <labelValue labelValue="" />
          <mxCell style="shape=attackgraphs.node;whiteSpace=wrap;fillColor=#FEE599;" parent="1" vertex="1">
            <mxGeometry x="2633" y="440" width="133" height="50" as="geometry" />
          </mxCell>
        </object>
        <object label="Manipulation des Datenbestandes (Digitaler Zwilling)" id="2Vn8Idm6m4d48psDPkdB-76">
          <labelValue labelValue="" />
          <mxCell style="shape=attackgraphs.node;whiteSpace=wrap;fillColor=#FEE599;" parent="1" vertex="1">
            <mxGeometry x="2490" y="440" width="133" height="50" as="geometry" />
          </mxCell>
        </object>
        <object label="Manipulation der Übertragung" id="2Vn8Idm6m4d48psDPkdB-77">
          <labelValue labelValue="" />
          <mxCell style="shape=attackgraphs.node;whiteSpace=wrap;fillColor=#FEE599;" parent="1" vertex="1">
            <mxGeometry x="2780" y="440" width="133" height="50" as="geometry" />
          </mxCell>
        </object>
      </root>
    </mxGraphModel>
  </diagram>
</mxfile>
